<svg xmlns="http://www.w3.org/2000/svg" width="42.9" height="36" viewBox="0 0 42.9 36"><g stroke-miterlimit="10"><path fill="none" stroke="#38f" stroke-dasharray="1200" stroke-dashoffset="1200" stroke-width="3.5" d="M27 5v.3q-.5.6-1.2.9c-1 .6-2.4 1-2.9 1.7l.7.3 1-.3q2-.2 3.9-.8c2.4-1 3.2-1.5 5.4 0 1.2.8 4.2-2.8 6-1.4 1.2.9 1.4 2.4.7 3.5l-1 1.5c-.3.3-1.2.7-1 .8q3.8.9 2 4.4-.9 1.7-2.2 3l-1 1.4-.5.3.2.4c7.5-2.3 2.8 6.3-.4 9-.8.8-4.4 2.8-5.5 2.7-.7 0-1.7-.6-2-1-.3-.3 0-1.2-.5-1.1-2 .5-4.3 3.6-6.2 3.7-1.5 0-5.1-2.1-5.5-3.6 0-.3.6-1.5.9-2.1h-.2c-1.5 1-3.2-.2-3.6-1.7q-.1-1.4.9-2.3l-.2-.9c-2.7 1.7-5.9 3.8-7.5 1.4-1.7-2.6 3.6-4.7 5-5.7.6-.3-.3-1-.2-1.6q0-.4.4-.8v-.9c-2.1.5-4.8 1.5-6.2 2.6-.3.2-2.1 1.7-2.8 1.4-7-4 9.3-11.2 12.2-13L19 5c1-.5 5-3.5 5.7-3.3h.3Q27 2 27.3 4q0 .3-.2.9z"><animate fill="freeze" attributeName="stroke-dashoffset" dur="10s" from="1200" to="0"/></path><path fill="#fa3" d="M27 5v.3q-.5.6-1.2.9c-1.2.7-2.7 1.2-3 2 0 .5 1.3-.2 1.9-.3q1.9-.3 3.8-.8c2.4-1 3.2-1.5 5.4 0 1.2.8 4.2-2.8 6-1.4 1.2.9 1.4 2.4.7 3.5l-1 1.5c-.3.3-1.2.7-1 .8q3.8.8 2 4.4-.9 1.7-2.2 3l-1 1.4c-.3.3-1.3 1-1 1 8.5-3 3.6 6 .3 8.8-.8.7-4.4 2.7-5.5 2.6-.7 0-1.7-.6-2-1-.3-.3 0-1.2-.5-1.1-2 .5-4.3 3.6-6.2 3.7-1.5 0-5.1-2.1-5.5-3.6 0-.4 1-2.5 1-2.5 0-.1-.1.4-.3.5-1.5.9-3.2-.3-3.6-1.8-.3-1.3 1-2.6 2-3.3.6-.4 2-1.5 1.5-1.3-2.5.6-8 6.3-10.3 2.8-1.7-2.6 3.6-4.7 5-5.7.6-.3-.3-1-.2-1.6s.8-1.2 1.3-1.5l.7-.5c-2 .3-6 1.5-7.8 2.9-.3.2-2.1 1.7-2.8 1.4-7-4 9.3-11.2 12.2-13L19 5c1-.5 5-3.5 5.7-3.3h.3Q27 2 27.3 4q0 .3-.2.9"/><path fill="none" stroke="#38f" stroke-linecap="round" stroke-width=".8" d="M32.3 27c-.6 2-9.2 4.8-13.8 2a8 8 0 0 1-3.7-8.7m18.9 0c2-1.5 4.5.4 3.2 2.7-.8 1.4-3 2-4 3.2m-19.2-6.7c-4-3 2-16 11-10.7m1-.3c2.8-1.6 8.2 0 9.6 2.5 1 2 3.8 7 1.3 8m-12.8 0c-1.7 0-2-1.6-2.5-2.7m6.7 2.3q-1.4-1-2.1-2.5m6.4 2c-1.1 0-1.6-.3-2.5-1m6 .8q-1.6-.2-2.7-1"/><path fill="#38f" d="M19.4 21.6a.7.7 0 1 1 1.4 0 .7.7 0 0 1-1.4 0m5.4 0a.7.7 0 1 1 1.5 0 .7.7 0 1 1-1.4 0z"/><path fill="none" stroke="#38f" stroke-linecap="round" stroke-width=".8" d="M25.6 24.3c-1.4 2-4 2.7-5.1 0m-2-5.1c-1.3-1.2-1.1-2.4-1.1-4m7.8-7.5c.2-.6.2-3.7 2-3 2 .8-1.2 2.6-2.2 3z"/></g></svg>