<svg version="1.1" xmlns="http://www.w3.org/2000/svg" xmlns:xlink="http://www.w3.org/1999/xlink" width="256.40247" height="49.05" viewBox="0,0,256.40247,49.05"><g transform="translate(-111.61707,-155.475)"><g data-paper-data="{&quot;isPaintingLayer&quot;:true}" fill="#ffaa33" fill-rule="evenodd" style="mix-blend-mode: normal"><path d="M129.43047,178.825l3.85,-10.85h7.55l-12.15,29.95c-0.76667,1.9 -1.78333,3.35 -3.05,4.35c-1.26667,1 -3,1.5 -5.2,1.5h-5.1v-5.75h6.2l1.6,-4.4l-10.4,-25.65h7.95l3.75,10.85l2.35,7.5h0.4z"/><path d="M155.05619,194.375c-2,0 -3.8,-0.30833 -5.4,-0.925c-1.6,-0.61667 -2.95834,-1.50833 -4.075,-2.675c-1.11667,-1.16666 -1.975,-2.58334 -2.575,-4.25c-0.6,-1.66666 -0.9,-3.55 -0.9,-5.65c0,-2.1 0.3,-3.98334 0.9,-5.65c0.6,-1.66666 1.45833,-3.08334 2.575,-4.25c1.11667,-1.16666 2.475,-2.05833 4.075,-2.675c1.6,-0.61667 3.4,-0.925 5.4,-0.925c2,0 3.8,0.30833 5.4,0.925c1.6,0.61667 2.95834,1.50833 4.075,2.675c1.11667,1.16666 1.975,2.58334 2.575,4.25c0.6,1.66666 0.9,3.55 0.9,5.65c0,2.1 -0.3,3.98334 -0.9,5.65c-0.6,1.66666 -1.45833,3.08334 -2.575,4.25c-1.11667,1.16666 -2.475,2.05833 -4.075,2.675c-1.6,0.61667 -3.4,0.925 -5.4,0.925zM160.35619,182.925v-4.1c0,-1.9 -0.46667,-3.36666 -1.4,-4.4c-0.93333,-1.03333 -2.23333,-1.55 -3.9,-1.55c-1.66666,0 -2.96667,0.51667 -3.9,1.55c-0.93333,1.03333 -1.4,2.5 -1.4,4.4v4.1c0,1.9 0.46667,3.36666 1.4,4.4c0.93333,1.03333 2.23334,1.55 3.9,1.55c1.66666,0 2.96666,-0.51667 3.9,-1.55c0.93333,-1.03333 1.4,-2.5 1.4,-4.4z"/><path d="M155.05619,194.375c-2,0 -3.8,-0.30833 -5.4,-0.925c-1.6,-0.61667 -2.95834,-1.50833 -4.075,-2.675c-1.11667,-1.16666 -1.975,-2.58334 -2.575,-4.25c-0.6,-1.66666 -0.9,-3.55 -0.9,-5.65c0,-2.1 0.3,-3.98334 0.9,-5.65c0.6,-1.66666 1.45833,-3.08334 2.575,-4.25c1.11667,-1.16666 2.475,-2.05833 4.075,-2.675c1.6,-0.61667 3.4,-0.925 5.4,-0.925c2,0 3.8,0.30833 5.4,0.925c1.6,0.61667 2.95834,1.50833 4.075,2.675c1.11667,1.16666 1.975,2.58334 2.575,4.25c0.6,1.66666 0.9,3.55 0.9,5.65c0,2.1 -0.3,3.98334 -0.9,5.65c-0.6,1.66666 -1.45833,3.08334 -2.575,4.25c-1.11667,1.16666 -2.475,2.05833 -4.075,2.675c-1.6,0.61667 -3.4,0.925 -5.4,0.925zM160.35619,182.925v-4.1c0,-1.9 -0.46667,-3.36666 -1.4,-4.4c-0.93333,-1.03333 -2.23333,-1.55 -3.9,-1.55c-1.66666,0 -2.96667,0.51667 -3.9,1.55c-0.93333,1.03333 -1.4,2.5 -1.4,4.4v4.1c0,1.9 0.46667,3.36666 1.4,4.4c0.93333,1.03333 2.23334,1.55 3.9,1.55c1.66666,0 2.96666,-0.51667 3.9,-1.55c0.93333,-1.03333 1.4,-2.5 1.4,-4.4z"/><path d="M170.7819,189.525l4.15,-3.85c1,1.1 2.175,1.95833 3.525,2.575c1.35,0.61667 2.89166,0.925 4.625,0.925c1.46667,0 2.61666,-0.225 3.45,-0.675c0.83334,-0.45 1.25,-1.14166 1.25,-2.075c0,-0.73334 -0.28333,-1.24167 -0.85,-1.525c-0.56667,-0.28333 -1.35,-0.50834 -2.35,-0.675l-4.15,-0.65c-1.16666,-0.16666 -2.25,-0.425 -3.25,-0.775c-1,-0.35 -1.86666,-0.825 -2.6,-1.425c-0.73334,-0.6 -1.31667,-1.33333 -1.75,-2.2c-0.43333,-0.86667 -0.65,-1.91666 -0.65,-3.15c0,-2.7 1.03333,-4.81667 3.1,-6.35c2.06667,-1.53333 4.96666,-2.3 8.7,-2.3c2.53333,0 4.69167,0.34167 6.475,1.025c1.78333,0.68333 3.20833,1.65833 4.275,2.925l-3.7,4.2c-0.76666,-0.83334 -1.75,-1.53333 -2.95,-2.1c-1.2,-0.56667 -2.65,-0.85 -4.35,-0.85c-2.86667,0 -4.3,0.86667 -4.3,2.6c0,0.76666 0.28333,1.29166 0.85,1.575c0.56667,0.28333 1.35,0.50834 2.35,0.675l4.1,0.65c1.16666,0.16666 2.25,0.425 3.25,0.775c1,0.35 1.875,0.825 2.625,1.425c0.75,0.6 1.34167,1.33333 1.775,2.2c0.43333,0.86667 0.65,1.91666 0.65,3.15c0,2.7 -1.04166,4.83334 -3.125,6.4c-2.08334,1.56667 -5.04166,2.35 -8.875,2.35c-2.86667,0 -5.35833,-0.43333 -7.475,-1.3c-2.11667,-0.86667 -3.70834,-2.05 -4.775,-3.55z"/><path d="M199.85762,193.775v-37h7.4v15.9h0.3c0.3,-0.73334 0.66666,-1.41667 1.1,-2.05c0.43333,-0.63333 0.95834,-1.19167 1.575,-1.675c0.61667,-0.48334 1.33333,-0.86666 2.15,-1.15c0.81667,-0.28333 1.74167,-0.425 2.775,-0.425c1.23334,0 2.36667,0.20834 3.4,0.625c1.03333,0.41666 1.91666,1.04166 2.65,1.875c0.73334,0.83334 1.30833,1.85 1.725,3.05c0.41666,1.2 0.625,2.58333 0.625,4.15v16.7h-7.4v-15.7c0,-3.33334 -1.45,-5 -4.35,-5c-0.56667,0 -1.125,0.075 -1.675,0.225c-0.55,0.15 -1.04166,0.38333 -1.475,0.7c-0.43333,0.31667 -0.775,0.70834 -1.025,1.175c-0.25,0.46667 -0.375,1.01666 -0.375,1.65v16.95z"/><path d="M354.31954,194.375c-2,0 -3.8,-0.30833 -5.4,-0.925c-1.6,-0.61667 -2.95833,-1.50833 -4.075,-2.675c-1.11667,-1.16666 -1.975,-2.58334 -2.575,-4.25c-0.6,-1.66666 -0.9,-3.55 -0.9,-5.65c0,-2.1 0.3,-3.98334 0.9,-5.65c0.6,-1.66666 1.45833,-3.08334 2.575,-4.25c1.11667,-1.16666 2.475,-2.05833 4.075,-2.675c1.6,-0.61667 3.4,-0.925 5.4,-0.925c2,0 3.8,0.30833 5.4,0.925c1.6,0.61667 2.95833,1.50833 4.075,2.675c1.11667,1.16666 1.975,2.58334 2.575,4.25c0.6,1.66666 0.9,3.55 0.9,5.65c0,2.1 -0.3,3.98334 -0.9,5.65c-0.6,1.66666 -1.45834,3.08334 -2.575,4.25c-1.11667,1.16666 -2.475,2.05833 -4.075,2.675c-1.6,0.61667 -3.4,0.925 -5.4,0.925zM359.61954,182.925v-4.1c0,-1.9 -0.46667,-3.36666 -1.4,-4.4c-0.93333,-1.03333 -2.23333,-1.55 -3.9,-1.55c-1.66667,0 -2.96667,0.51667 -3.9,1.55c-0.93333,1.03333 -1.4,2.5 -1.4,4.4v4.1c0,1.9 0.46666,3.36666 1.4,4.4c0.93333,1.03333 2.23334,1.55 3.9,1.55c1.66667,0 2.96666,-0.51667 3.9,-1.55c0.93333,-1.03333 1.4,-2.5 1.4,-4.4z"/><path d="M336.26049,193.775h-9.55c-2.66667,0 -4.65,-0.7 -5.95,-2.1c-1.3,-1.4 -1.95,-3.18334 -1.95,-5.35v-12.6h-7v-5.75h4.55c1.1,0 1.88334,-0.21667 2.35,-0.65c0.46666,-0.43333 0.7,-1.23333 0.7,-2.4v-6.05h6.8v9.1h10.05v5.75h-10.05v14.3h10.05z"/><path d="M286.13477,193.775v-5.75h8.2v-14.3h-8.2v-5.75h15.6v20.05h7.6v5.75z"/><path d="M256.40905,193.775v-37h7.4v15.9h0.3c0.3,-0.73334 0.66667,-1.41667 1.1,-2.05c0.43333,-0.63333 0.95833,-1.19167 1.575,-1.675c0.61667,-0.48334 1.33333,-0.86666 2.15,-1.15c0.81667,-0.28333 1.74167,-0.425 2.775,-0.425c1.23334,0 2.36666,0.20834 3.4,0.625c1.03334,0.41666 1.91666,1.04166 2.65,1.875c0.73334,0.83334 1.30833,1.85 1.725,3.05c0.41667,1.2 0.625,2.58333 0.625,4.15v16.7h-7.4v-15.7c0,-3.33334 -1.45,-5 -4.35,-5c-0.56667,0 -1.125,0.075 -1.675,0.225c-0.55,0.15 -1.04166,0.38333 -1.475,0.7c-0.43333,0.31667 -0.775,0.70834 -1.025,1.175c-0.25,0.46667 -0.375,1.01666 -0.375,1.65v16.95z"/><path d="M229.58334,193.775v-5.75h8.2v-14.3h-8.2v-5.75h15.6v20.05h7.6v5.75z"/><path d="M237.03334,161.175v-1.45c0,-1 0.325,-1.83334 0.975,-2.5c0.65,-0.66666 1.80833,-1 3.475,-1c1.66666,0 2.825,0.33334 3.475,1c0.65,0.66666 0.975,1.5 0.975,2.5v1.45c0,0.96667 -0.325,1.79166 -0.975,2.475c-0.65,0.68333 -1.80833,1.025 -3.475,1.025c-1.66666,0 -2.825,-0.34167 -3.475,-1.025c-0.65,-0.68333 -0.975,-1.50833 -0.975,-2.475z"/><path d="M293.58477,161.175v-1.45c0,-1 0.325,-1.83334 0.975,-2.5c0.65,-0.66666 1.80833,-1 3.475,-1c1.66667,0 2.825,0.33334 3.475,1c0.65,0.66666 0.975,1.5 0.975,2.5v1.45c0,0.96667 -0.325,1.79166 -0.975,2.475c-0.65,0.68333 -1.80833,1.025 -3.475,1.025c-1.66667,0 -2.825,-0.34167 -3.475,-1.025c-0.65,-0.68333 -0.975,-1.50833 -0.975,-2.475z"/></g></g></svg>